HIERARCHY
ROOT Hips
{
	OFFSET 0.000000 0.000000 0.000000
	CHANNELS 6 Xposition Yposition Zposition Xrotation Yrotation Zrotation
	JOINT Thigh.L
	{
		OFFSET 0.054235 0.030853 -0.091989
		CHANNELS 3 Xrotation Yrotation Zrotation
		JOINT Shin.L
		{
			OFFSET 0.053145 0.016352 -0.411631
			CHANNELS 3 Xrotation Yrotation Zrotation
			JOINT Foot.L
			{
				OFFSET -0.041352 0.033356 -0.431601
				CHANNELS 3 Xrotation Yrotation Zrotation
				JOINT Toe.L
				{
					OFFSET 0.044576 -0.119074 -0.063716
					CHANNELS 3 Xrotation Yrotation Zrotation
					End Site
					{
						OFFSET 0.000000 0.050000 0.000000
					}
				}
			}
		}
	}
	JOINT Thigh.R
	{
		OFFSET -0.059521 0.028250 -0.102293
		CHANNELS 3 Xrotation Yrotation Zrotation
		JOINT Shin.R
		{
			OFFSET -0.042515 0.021700 -0.395397
			CHANNELS 3 Xrotation Yrotation Zrotation
			JOINT Foot.R
			{
				OFFSET 0.015514 0.021883 -0.440525
				CHANNELS 3 Xrotation Yrotation Zrotation
				JOINT Toe.R
				{
					OFFSET -0.036940 -0.119828 -0.063707
					CHANNELS 3 Xrotation Yrotation Zrotation
					End Site
					{
						OFFSET 0.000000 0.050000 0.000000
					}
				}
			}
		}
	}
	JOINT Spine
	{
		OFFSET -0.002003 0.019155 0.109189
		CHANNELS 3 Xrotation Yrotation Zrotation
		JOINT Spine.2
		{
			OFFSET 0.006575 0.002733 0.134717
			CHANNELS 3 Xrotation Yrotation Zrotation
			JOINT Chest
			{
				OFFSET -0.010344 -0.022755 0.049324
				CHANNELS 3 Xrotation Yrotation Zrotation
				JOINT Neck
				{
					OFFSET -0.009292 0.028669 0.163858
					CHANNELS 3 Xrotation Yrotation Zrotation
					JOINT Head
					{
						OFFSET 0.022050 -0.023125 0.167455
						CHANNELS 3 Xrotation Yrotation Zrotation
						End Site
						{
							OFFSET 0.000000 0.050000 0.000000
						}
					}
				}
				JOINT Clavicle.L
				{
					OFFSET 0.043141 0.008255 0.083722
					CHANNELS 3 Xrotation Yrotation Zrotation
					JOINT UpperArm.L
					{
						OFFSET 0.105866 0.014770 0.061724
						CHANNELS 3 Xrotation Yrotation Zrotation
						JOINT ForeArm.L
						{
							OFFSET 0.264278 0.034944 -0.075541
							CHANNELS 3 Xrotation Yrotation Zrotation
							JOINT Hand.L
							{
								OFFSET 0.262962 0.006606 0.021009
								CHANNELS 3 Xrotation Yrotation Zrotation
								JOINT Thumb1.L
								{
									OFFSET 0.154581 0.003004 0.009554
									CHANNELS 3 Xrotation Yrotation Zrotation
									JOINT Thumb2.L
									{
										OFFSET 0.029895 0.000751 0.002388
										CHANNELS 3 Xrotation Yrotation Zrotation
										End Site
										{
											OFFSET 0.024913 0.000626 0.001990
										}
									}
								}
								JOINT Index1.L
								{
									OFFSET 0.137581 0.003004 0.009554
									CHANNELS 3 Xrotation Yrotation Zrotation
									JOINT Index2.L
									{
										OFFSET 0.029895 0.000751 0.002388
										CHANNELS 3 Xrotation Yrotation Zrotation
										JOINT Index3.L
										{
											OFFSET 0.021923 0.000551 0.001752
											CHANNELS 3 Xrotation Yrotation Zrotation
											End Site
											{
												OFFSET 0.017937 0.000451 0.001433
											}
										}
									}
								}
								JOINT Middle1.L
								{
									OFFSET 0.119581 0.003004 0.009554
									CHANNELS 3 Xrotation Yrotation Zrotation
									JOINT Middle2.L
									{
										OFFSET 0.030892 0.000776 0.002468
										CHANNELS 3 Xrotation Yrotation Zrotation
										JOINT Middle3.L
										{
											OFFSET 0.021923 0.000551 0.001752
											CHANNELS 3 Xrotation Yrotation Zrotation
											End Site
											{
												OFFSET 0.017937 0.000451 0.001433
											}
										}
									}
								}
								JOINT Ring1.L
								{
									OFFSET 0.101581 0.003004 0.009554
									CHANNELS 3 Xrotation Yrotation Zrotation
									JOINT Ring2.L
									{
										OFFSET 0.028899 0.000726 0.002309
										CHANNELS 3 Xrotation Yrotation Zrotation
										JOINT Ring3.L
										{
											OFFSET 0.019930 0.000501 0.001592
											CHANNELS 3 Xrotation Yrotation Zrotation
											End Site
											{
												OFFSET 0.016941 0.000426 0.001353
											}
										}
									}
								}
								JOINT Pinky1.L
								{
									OFFSET 0.085581 0.003004 0.009554
									CHANNELS 3 Xrotation Yrotation Zrotation
									JOINT Pinky2.L
									{
										OFFSET 0.023916 0.000601 0.001911
										CHANNELS 3 Xrotation Yrotation Zrotation
										JOINT Pinky3.L
										{
											OFFSET 0.016941 0.000426 0.001353
											CHANNELS 3 Xrotation Yrotation Zrotation
											End Site
											{
												OFFSET 0.013951 0.000350 0.001115
											}
										}
									}
								}
							}
						}
					}
				}
				JOINT Clavicle.R
				{
					OFFSET -0.041073 0.014349 0.083200
					CHANNELS 3 Xrotation Yrotation Zrotation
					JOINT UpperArm.R
					{
						OFFSET -0.091412 0.009600 0.057333
						CHANNELS 3 Xrotation Yrotation Zrotation
						JOINT ForeArm.R
						{
							OFFSET -0.280246 0.022518 -0.042983
							CHANNELS 3 Xrotation Yrotation Zrotation
							JOINT Hand.R
							{
								OFFSET -0.259682 0.019112 -0.003483
								CHANNELS 3 Xrotation Yrotation Zrotation
								JOINT Thumb1.R
								{
									OFFSET -0.154666 0.008807 -0.001605
									CHANNELS 3 Xrotation Yrotation Zrotation
									JOINT Thumb2.R
									{
										OFFSET -0.029916 0.002202 -0.000401
										CHANNELS 3 Xrotation Yrotation Zrotation
										End Site
										{
											OFFSET -0.024930 0.001835 -0.000334
										}
									}
								}
								JOINT Index1.R
								{
									OFFSET -0.137666 0.008807 -0.001605
									CHANNELS 3 Xrotation Yrotation Zrotation
									JOINT Index2.R
									{
										OFFSET -0.029916 0.002202 -0.000401
										CHANNELS 3 Xrotation Yrotation Zrotation
										JOINT Index3.R
										{
											OFFSET -0.021939 0.001615 -0.000294
											CHANNELS 3 Xrotation Yrotation Zrotation
											End Site
											{
												OFFSET -0.017950 0.001321 -0.000241
											}
										}
									}
								}
								JOINT Middle1.R
								{
									OFFSET -0.119666 0.008807 -0.001605
									CHANNELS 3 Xrotation Yrotation Zrotation
									JOINT Middle2.R
									{
										OFFSET -0.030914 0.002275 -0.000415
										CHANNELS 3 Xrotation Yrotation Zrotation
										JOINT Middle3.R
										{
											OFFSET -0.021939 0.001615 -0.000294
											CHANNELS 3 Xrotation Yrotation Zrotation
											End Site
											{
												OFFSET -0.017950 0.001321 -0.000241
											}
										}
									}
								}
								JOINT Ring1.R
								{
									OFFSET -0.101666 0.008807 -0.001605
									CHANNELS 3 Xrotation Yrotation Zrotation
									JOINT Ring2.R
									{
										OFFSET -0.028919 0.002128 -0.000388
										CHANNELS 3 Xrotation Yrotation Zrotation
										JOINT Ring3.R
										{
											OFFSET -0.019944 0.001468 -0.000268
											CHANNELS 3 Xrotation Yrotation Zrotation
											End Site
											{
												OFFSET -0.016953 0.001248 -0.000227
											}
										}
									}
								}
								JOINT Pinky1.R
								{
									OFFSET -0.085666 0.008807 -0.001605
									CHANNELS 3 Xrotation Yrotation Zrotation
									JOINT Pinky2.R
									{
										OFFSET -0.023933 0.001761 -0.000321
										CHANNELS 3 Xrotation Yrotation Zrotation
										JOINT Pinky3.R
										{
											OFFSET -0.016953 0.001248 -0.000227
											CHANNELS 3 Xrotation Yrotation Zrotation
											End Site
											{
												OFFSET -0.013961 0.001027 -0.000187
											}
										}
									}
								}
							}
						}
					}
				}
			}
		}
	}
}
MOTION
Frames: 6
Frame Time: 0.03333333
-1.686682 0.717980 1.062617 -5.307186 0.442459 13.180189 -13.083886 -17.069914 3.057251 5.490380 -0.177691 -3.973154 4.728985 10.358123 8.582771 2.666322 -3.830084 0.426436 7.057456 7.965524 -3.138664 8.770791 -0.755882 12.821568 -15.036054 -4.789132 3.809578 0.903680 -3.285217 -1.308095 3.611589 -1.209773 3.834552 7.089820 -1.416406 -1.596246 -6.557532 1.494005 0.412456 4.269644 -1.380529 1.676796 8.300717 -2.612583 0.707642 5.145678 22.426360 6.037232 7.699929 46.061699 -7.022198 8.255103 0.286855 -13.777308 -2.255506 2.799623 -6.779904 0.000000 0.000000 0.000000 0.000000 0.000000 0.000000 0.000000 0.000000 0.000000 0.000000 0.000000 0.000000 0.000000 0.000000 0.000000 0.000000 0.000000 0.000000 0.000000 0.000000 0.000000 0.000000 0.000000 0.000000 0.000000 0.000000 0.000000 0.000000 0.000000 0.000000 0.000000 0.000000 0.000000 0.000000 0.000000 0.000000 0.000000 0.000000 0.000000 0.000000 0.000000 0.000000 1.292122 -11.164321 2.038106 23.973663 -51.215924 28.903762 7.792265 3.481639 32.930217 -10.900300 -3.551697 2.555235 0.000000 0.000000 0.000000 0.000000 0.000000 0.000000 0.000000 0.000000 0.000000 0.000000 0.000000 0.000000 0.000000 0.000000 0.000000 0.000000 0.000000 0.000000 0.000000 0.000000 0.000000 0.000000 0.000000 0.000000 0.000000 0.000000 0.000000 0.000000 0.000000 0.000000 0.000000 0.000000 0.000000 0.000000 0.000000 0.000000 0.000000 0.000000 0.000000 0.000000 0.000000 0.000000
-1.697530 0.732571 1.056236 -5.063527 0.716687 13.028701 -12.547012 -15.716462 2.949063 6.462798 0.360045 -4.171639 3.521853 9.342208 9.462877 2.476572 -4.159257 0.233685 6.957719 9.857700 -3.229227 11.944761 0.509749 12.980852 -12.588752 -5.856301 2.569369 0.916511 -3.238355 -1.192041 2.785581 -1.111580 3.745565 7.288597 -1.803943 -1.599958 -6.691182 1.708312 0.384067 4.571360 -1.589872 1.500281 8.704102 -2.446947 1.125869 5.489907 22.424252 6.006547 8.507680 45.975673 -8.313850 7.729112 0.629964 -13.921448 -2.322991 2.674113 -6.648916 0.000000 0.000000 0.000000 0.000000 0.000000 0.000000 0.000000 0.000000 0.000000 0.000000 0.000000 0.000000 0.000000 0.000000 0.000000 0.000000 0.000000 0.000000 0.000000 0.000000 0.000000 0.000000 0.000000 0.000000 0.000000 0.000000 0.000000 0.000000 0.000000 0.000000 0.000000 0.000000 0.000000 0.000000 0.000000 0.000000 0.000000 0.000000 0.000000 0.000000 0.000000 0.000000 1.562118 -11.545236 1.482499 23.547793 -50.504950 28.360638 7.072265 2.961868 32.517552 -10.856412 -3.789470 2.200691 0.000000 0.000000 0.000000 0.000000 0.000000 0.000000 0.000000 0.000000 0.000000 0.000000 0.000000 0.000000 0.000000 0.000000 0.000000 0.000000 0.000000 0.000000 0.000000 0.000000 0.000000 0.000000 0.000000 0.000000 0.000000 0.000000 0.000000 0.000000 0.000000 0.000000 0.000000 0.000000 0.000000 0.000000 0.000000 0.000000 0.000000 0.000000 0.000000 0.000000 0.000000 0.000000
-1.707476 0.727349 1.052555 -4.762560 0.448666 13.287120 -12.378855 -13.854996 2.536820 7.864989 1.148252 -4.491728 2.063230 8.014584 9.861259 2.308245 -4.457142 0.005181 6.082499 11.400973 -3.006037 15.394892 1.885344 12.471280 -9.313304 -5.243997 -1.668118 0.923601 -3.248459 -1.003384 2.162126 -0.938972 3.650413 7.494430 -2.346828 -1.719757 -7.054305 2.030379 0.356350 4.909890 -1.603066 0.951945 8.632203 -2.402032 1.424998 5.830406 22.521028 5.753901 9.440452 46.151182 -9.910919 7.353872 0.541540 -14.322696 -2.433096 2.890144 -6.463141 0.000000 0.000000 0.000000 0.000000 0.000000 0.000000 0.000000 0.000000 0.000000 0.000000 0.000000 0.000000 0.000000 0.000000 0.000000 0.000000 0.000000 0.000000 0.000000 0.000000 0.000000 0.000000 0.000000 0.000000 0.000000 0.000000 0.000000 0.000000 0.000000 0.000000 0.000000 0.000000 0.000000 0.000000 0.000000 0.000000 0.000000 0.000000 0.000000 0.000000 0.000000 0.000000 2.025325 -12.142059 0.987283 23.097890 -49.857846 27.372393 6.065315 2.726262 31.904609 -10.464348 -4.546553 1.812606 0.000000 0.000000 0.000000 0.000000 0.000000 0.000000 0.000000 0.000000 0.000000 0.000000 0.000000 0.000000 0.000000 0.000000 0.000000 0.000000 0.000000 0.000000 0.000000 0.000000 0.000000 0.000000 0.000000 0.000000 0.000000 0.000000 0.000000 0.000000 0.000000 0.000000 0.000000 0.000000 0.000000 0.000000 0.000000 0.000000 0.000000 0.000000 0.000000 0.000000 0.000000 0.000000
-1.716700 0.721572 1.052109 -4.523158 -0.171972 13.925910 -12.509753 -11.611867 1.591856 9.582582 1.834428 -5.363286 0.851767 6.490189 10.283210 1.957028 -4.876652 -0.242296 4.113285 12.895510 -2.205798 20.630825 3.021470 11.846741 -5.671293 -5.659773 -3.709022 0.942795 -3.293151 -0.826080 1.911814 -0.733991 3.578495 7.433930 -2.837790 -1.845516 -7.217662 2.376008 0.385386 5.441642 -1.535391 0.434076 8.588077 -2.203785 1.815223 6.285171 22.337128 5.197323 10.694718 46.241587 -11.997202 7.520864 0.459969 -14.858556 -2.527717 2.991285 -6.466536 0.000000 0.000000 0.000000 0.000000 0.000000 0.000000 0.000000 0.000000 0.000000 0.000000 0.000000 0.000000 0.000000 0.000000 0.000000 0.000000 0.000000 0.000000 0.000000 0.000000 0.000000 0.000000 0.000000 0.000000 0.000000 0.000000 0.000000 0.000000 0.000000 0.000000 0.000000 0.000000 0.000000 0.000000 0.000000 0.000000 0.000000 0.000000 0.000000 0.000000 0.000000 0.000000 2.406452 -12.483410 0.463605 22.583050 -49.374413 26.163098 4.743233 2.524457 31.032647 -10.660802 -5.537504 1.430928 0.000000 0.000000 0.000000 0.000000 0.000000 0.000000 0.000000 0.000000 0.000000 0.000000 0.000000 0.000000 0.000000 0.000000 0.000000 0.000000 0.000000 0.000000 0.000000 0.000000 0.000000 0.000000 0.000000 0.000000 0.000000 0.000000 0.000000 0.000000 0.000000 0.000000 0.000000 0.000000 0.000000 0.000000 0.000000 0.000000 0.000000 0.000000 0.000000 0.000000 0.000000 0.000000
-1.726711 0.715153 1.054690 -4.276262 -0.640502 15.801063 -12.224766 -8.559327 0.361999 10.368626 2.150170 -6.247392 0.313666 4.923728 10.672540 1.635624 -5.630419 -0.623382 0.012202 13.791359 -0.501189 28.999884 3.974664 10.586630 0.264220 -6.507185 -5.044579 1.041315 -3.101216 -0.432439 1.972377 -0.280548 3.302756 7.605957 -3.639900 -2.345610 -8.154700 2.924514 0.283361 5.921351 -1.361639 -0.549345 8.296954 -2.376263 2.687103 7.140591 21.973718 4.306835 11.888909 46.621263 -15.011635 7.642069 0.248847 -15.494011 -2.978581 3.009457 -6.460712 0.000000 0.000000 0.000000 0.000000 0.000000 0.000000 0.000000 0.000000 0.000000 0.000000 0.000000 0.000000 0.000000 0.000000 0.000000 0.000000 0.000000 0.000000 0.000000 0.000000 0.000000 0.000000 0.000000 0.000000 0.000000 0.000000 0.000000 0.000000 0.000000 0.000000 0.000000 0.000000 0.000000 0.000000 0.000000 0.000000 0.000000 0.000000 0.000000 0.000000 0.000000 0.000000 3.076013 -12.830709 -0.420041 22.470482 -49.559251 24.850098 2.195998 2.676873 28.692558 -10.531129 -6.565492 1.237211 0.000000 0.000000 0.000000 0.000000 0.000000 0.000000 0.000000 0.000000 0.000000 0.000000 0.000000 0.000000 0.000000 0.000000 0.000000 0.000000 0.000000 0.000000 0.000000 0.000000 0.000000 0.000000 0.000000 0.000000 0.000000 0.000000 0.000000 0.000000 0.000000 0.000000 0.000000 0.000000 0.000000 0.000000 0.000000 0.000000 0.000000 0.000000 0.000000 0.000000 0.000000 0.000000
-1.733756 0.725451 1.059682 -4.404460 -1.398837 17.212951 -10.217305 -6.205398 -0.319227 9.657856 2.245102 -7.724254 0.187498 3.445497 11.340880 1.269206 -6.435904 -0.606356 -5.185643 13.267674 1.668693 39.054905 4.634129 9.218821 4.467568 -6.161048 -6.178877 1.191049 -3.396875 -0.402872 2.276503 -0.209676 2.472444 7.101488 -4.029164 -2.610298 -7.525391 3.111133 -0.096190 5.965682 -0.986973 -0.993296 7.914835 -2.083398 3.145014 6.995308 21.486271 3.273811 12.707509 46.893703 -17.015006 7.324485 -0.419353 -17.093601 -2.647018 3.049391 -6.367322 0.000000 0.000000 0.000000 0.000000 0.000000 0.000000 0.000000 0.000000 0.000000 0.000000 0.000000 0.000000 0.000000 0.000000 0.000000 0.000000 0.000000 0.000000 0.000000 0.000000 0.000000 0.000000 0.000000 0.000000 0.000000 0.000000 0.000000 0.000000 0.000000 0.000000 0.000000 0.000000 0.000000 0.000000 0.000000 0.000000 0.000000 0.000000 0.000000 0.000000 0.000000 0.000000 2.934874 -13.450400 -0.491249 22.710901 -49.238542 23.511851 0.855302 2.664703 27.143044 -9.116150 -6.815611 1.248737 0.000000 0.000000 0.000000 0.000000 0.000000 0.000000 0.000000 0.000000 0.000000 0.000000 0.000000 0.000000 0.000000 0.000000 0.000000 0.000000 0.000000 0.000000 0.000000 0.000000 0.000000 0.000000 0.000000 0.000000 0.000000 0.000000 0.000000 0.000000 0.000000 0.000000 0.000000 0.000000 0.000000 0.000000 0.000000 0.000000 0.000000 0.000000 0.000000 0.000000 0.000000 0.000000
